<?xml version="1.0" encoding="utf-8"?>
<!-- Generator: Adobe Illustrator 16.0.0, SVG Export Plug-In . SVG Version: 6.00 Build 0)  -->
<!DOCTYPE svg PUBLIC "-//W3C//DTD SVG 1.1//EN" "http://www.w3.org/Graphics/SVG/1.1/DTD/svg11.dtd">
<svg version="1.1" id="Layer_1" xmlns="http://www.w3.org/2000/svg" xmlns:xlink="http://www.w3.org/1999/xlink" x="0px" y="0px"
	 width="203px" height="44px" viewBox="0 0 203 44" enable-background="new 0 0 203 44" xml:space="preserve">
<g>
	<path fill="#FFFFFF" d="M175.803,29.349c-0.078-0.015-0.158-0.023-0.209-0.023c-0.268,0-0.514,0.081-0.761,0.251
		c-0.259,0.175-0.437,0.421-0.526,0.716h-0.045l-0.031-0.872h-0.911c0.021,0.431,0.035,0.918,0.035,1.436V34h1.042v-2.403
		c0-0.365,0.098-0.669,0.27-0.899c0.225-0.275,0.506-0.406,0.871-0.406c0.085,0,0.162,0.001,0.266,0.026V29.349z"/>
</g>
<g>
	<path fill="#FFFFFF" d="M182.361,41.207c-0.302-0.113-0.526-0.219-0.629-0.318c-0.123-0.093-0.197-0.23-0.197-0.384
		c0-0.155,0.066-0.286,0.186-0.385c0.114-0.101,0.299-0.153,0.515-0.153c0.335,0,0.65,0.09,0.954,0.252l0.217-0.721
		c-0.326-0.182-0.711-0.272-1.178-0.272c-0.508,0-0.922,0.129-1.233,0.388c-0.295,0.275-0.452,0.601-0.452,0.995
		c0,0.583,0.422,1.008,1.254,1.318c0.296,0.104,0.506,0.209,0.618,0.311c0.118,0.112,0.183,0.267,0.183,0.438
		c0,0.378-0.283,0.562-0.801,0.562c-0.416,0-0.802-0.098-1.158-0.306l-0.227,0.756c0.379,0.212,0.824,0.313,1.36,0.313
		c0.563,0,1.007-0.128,1.333-0.383c0.311-0.267,0.477-0.606,0.477-1.018C183.582,41.963,183.189,41.506,182.361,41.207z"/>
</g>
<g>
	<rect x="189.031" y="29.421" fill="#FFFFFF" width="1.041" height="4.579"/>
</g>
<g>
	<path fill="#FFFFFF" d="M185.028,34v-2.79c0-0.274,0.093-0.531,0.252-0.731c0.175-0.215,0.397-0.316,0.612-0.316
		c0.544,0,0.836,0.414,0.836,1.278V34h1.019v-2.719c0-0.681-0.167-1.2-0.497-1.534c-0.27-0.283-0.616-0.421-1.033-0.421
		c-0.311,0-0.559,0.096-0.825,0.271c-0.226,0.151-0.402,0.34-0.557,0.584h-0.011c-0.221-0.572-0.662-0.855-1.295-0.855
		c-0.629,0-1.097,0.258-1.42,0.774h-0.023l-0.061-0.678h-0.874c0.011,0.47,0.028,0.911,0.028,1.314V34h1.012v-2.73
		c0-0.288,0.092-0.548,0.275-0.773c0.172-0.227,0.412-0.333,0.696-0.333c0.28,0,0.497,0.101,0.631,0.307
		c0.151,0.209,0.231,0.48,0.231,0.824V34H185.028z"/>
</g>
<g>
	<path fill="#FFFFFF" d="M202.497,29.747c-0.269-0.283-0.61-0.421-1.021-0.421c-0.361,0-0.682,0.096-0.959,0.271
		c-0.211,0.151-0.398,0.34-0.545,0.584h-0.014c-0.227-0.572-0.664-0.855-1.295-0.855c-0.623,0-1.105,0.258-1.354,0.774h-0.034
		l-0.053-0.678h-0.887c0.023,0.47,0.031,0.911,0.031,1.314V34h0.988v-2.73c0-0.288,0.059-0.548,0.238-0.773
		c0.184-0.227,0.414-0.333,0.695-0.333c0.277,0,0.496,0.101,0.637,0.307c0.148,0.209,0.23,0.48,0.23,0.824V34h1.004v-2.79
		c0-0.274,0.088-0.531,0.262-0.731c0.166-0.215,0.396-0.316,0.672-0.316c0.594,0,0.891,0.414,0.891,1.278V34H203v-2.719
		C203,30.601,202.826,30.081,202.497,29.747z"/>
</g>
<g>
	<path fill="#FFFFFF" d="M194.293,33.31h0.013l0.061,0.69h0.921c-0.017-0.44-0.039-0.885-0.039-1.302v-3.277h-1.044v2.795
		c0,0.146-0.017,0.278-0.061,0.39c-0.184,0.435-0.499,0.656-0.963,0.656c-0.614,0-0.925-0.435-0.925-1.316v-2.525h-1.086v2.704
		c0,0.699,0.17,1.223,0.484,1.561c0.283,0.288,0.681,0.429,1.146,0.429C193.463,34.115,193.96,33.856,194.293,33.31z"/>
</g>
<g>
	<path fill="#FFFFFF" d="M200.082,39.469c-0.234,0.175-0.415,0.428-0.523,0.72h-0.021l-0.042-0.873h-0.902
		c0.029,0.436,0.029,0.918,0.029,1.438v3.161h1.051v-2.417c0-0.372,0.099-0.672,0.268-0.899c0.195-0.288,0.476-0.418,0.832-0.418
		c0.116,0,0.222,0.019,0.321,0.031v-0.969c-0.072-0.012-0.146-0.017-0.271-0.017C200.562,39.226,200.316,39.31,200.082,39.469z"/>
</g>
<g>
	<path fill="#FFFFFF" d="M177.862,39.206c-0.686,0-1.238,0.25-1.642,0.744c-0.385,0.458-0.576,1.038-0.576,1.732
		c0,0.708,0.205,1.264,0.622,1.689c0.413,0.42,0.978,0.628,1.71,0.628c0.61,0,1.129-0.092,1.567-0.283l-0.158-0.71
		c-0.384,0.144-0.799,0.207-1.272,0.207c-0.423,0-0.752-0.104-1.019-0.32c-0.295-0.228-0.444-0.587-0.455-1.041h3.128
		c0.029-0.126,0.049-0.278,0.049-0.453c0-0.581-0.153-1.057-0.418-1.45C179.043,39.455,178.529,39.206,177.862,39.206z
		 M176.64,41.126c0.029-0.308,0.14-0.572,0.314-0.792c0.199-0.261,0.491-0.405,0.817-0.405c0.379,0,0.66,0.144,0.831,0.414
		c0.146,0.23,0.222,0.476,0.214,0.784H176.64z"/>
</g>
<g>
	<path fill="#FFFFFF" d="M178.444,29.31c-0.687,0-1.235,0.253-1.638,0.735c-0.385,0.464-0.58,1.043-0.58,1.731
		c0,0.712,0.211,1.266,0.625,1.697c0.419,0.417,0.986,0.622,1.71,0.622c0.601,0,1.133-0.096,1.56-0.278l-0.146-0.709
		c-0.391,0.146-0.807,0.209-1.27,0.209c-0.426,0-0.766-0.104-1.021-0.317c-0.297-0.236-0.451-0.586-0.467-1.042h3.136
		c0.028-0.121,0.044-0.277,0.044-0.46c0-0.579-0.15-1.056-0.417-1.453C179.625,29.563,179.119,29.31,178.444,29.31z M177.217,31.229
		c0.033-0.311,0.145-0.59,0.312-0.791c0.212-0.275,0.488-0.423,0.836-0.423c0.378,0,0.638,0.15,0.827,0.426
		c0.139,0.22,0.217,0.487,0.207,0.788H177.217z"/>
</g>
<g>
	<path fill="#FFFFFF" d="M172.639,29.49c0-0.574-0.192-1.046-0.599-1.378c-0.417-0.353-1.034-0.521-1.855-0.521
		c-0.63,0-1.214,0.042-1.581,0.14V34h0.939v-2.447c0.141,0.015,0.334,0.031,0.588,0.031c0.873,0,1.535-0.229,1.981-0.692
		C172.467,30.552,172.639,30.076,172.639,29.49z M171.218,30.463c-0.262,0.216-0.619,0.326-1.081,0.326
		c-0.25,0-0.446-0.021-0.594-0.053V28.44c0.174-0.039,0.405-0.058,0.689-0.058c0.438,0,0.773,0.098,1.018,0.294
		c0.237,0.209,0.367,0.491,0.367,0.876C171.617,29.937,171.48,30.239,171.218,30.463z"/>
</g>
<g>
	<path fill="#FFFFFF" d="M174.797,42.152c-0.186-0.685-0.49-1.107-0.939-1.265v-0.03c0.342-0.121,0.625-0.304,0.836-0.566
		c0.279-0.289,0.4-0.653,0.4-1.036c0-0.529-0.186-0.95-0.572-1.252c-0.405-0.339-1.06-0.504-1.941-0.504
		c-0.654,0-1.211,0.039-1.695,0.124v6.292h1.059v-2.687h0.637c0.342,0,0.615,0.086,0.791,0.27c0.184,0.161,0.325,0.469,0.408,0.9
		c0.183,0.815,0.322,1.328,0.42,1.517h1.111c-0.061-0.118-0.139-0.328-0.217-0.677C175.025,43.053,174.941,42.682,174.797,42.152z
		 M173.641,40.167c-0.242,0.204-0.561,0.319-0.973,0.319h-0.725v-2.164c0.166-0.048,0.413-0.072,0.743-0.072
		c0.876,0.005,1.322,0.362,1.322,1.095C174.009,39.696,173.885,39.96,173.641,40.167z"/>
</g>
<g>
	<path fill="#FFFFFF" d="M197.647,41.399c0-0.581-0.143-1.057-0.347-1.45c-0.357-0.495-0.869-0.744-1.54-0.744
		c-0.687,0-1.237,0.25-1.644,0.744c-0.377,0.458-0.564,1.038-0.564,1.732c0,0.708,0.195,1.264,0.612,1.689
		c0.415,0.42,0.987,0.628,1.718,0.628c0.604,0,1.122-0.092,1.521-0.283l-0.127-0.71c-0.365,0.144-0.791,0.207-1.264,0.207
		c-0.407,0-0.766-0.104-1.022-0.32c-0.284-0.228-0.438-0.587-0.449-1.041h3.077C197.635,41.726,197.647,41.574,197.647,41.399z
		 M194.542,41.126c0.027-0.308,0.134-0.572,0.308-0.792c0.207-0.261,0.502-0.405,0.836-0.405c0.382,0,0.65,0.144,0.828,0.414
		c0.136,0.23,0.211,0.476,0.205,0.784H194.542z"/>
</g>
<g>
	<path fill="#FFFFFF" d="M186.387,39.206c-0.561,0-1.115,0.25-1.516,0.744c-0.391,0.458-0.577,1.038-0.577,1.732
		c0,0.708,0.198,1.264,0.62,1.689c0.41,0.42,0.949,0.628,1.584,0.628c0.609,0,1.131-0.092,1.568-0.283l-0.157-0.71
		c-0.37,0.144-0.802,0.207-1.273,0.207c-0.419,0-0.716-0.104-0.901-0.32c-0.281-0.228-0.443-0.587-0.454-1.041h3.018
		c0.019-0.126,0.04-0.278,0.04-0.453c0-0.581-0.136-1.057-0.418-1.45C187.58,39.455,187.057,39.206,186.387,39.206z M185.28,41.126
		c0.04-0.308,0.143-0.572,0.308-0.792c0.227-0.261,0.387-0.405,0.715-0.405c0.38,0,0.645,0.144,0.832,0.414
		c0.139,0.23,0.209,0.476,0.209,0.784H185.28z"/>
</g>
<g>
	<rect x="191.446" y="37.208" fill="#FFFFFF" width="1.094" height="6.707"/>
</g>
<g>
	<path fill="#FFFFFF" d="M189.529,28.643c0.195,0,0.354-0.062,0.48-0.177c0.113-0.113,0.18-0.251,0.18-0.435
		c0-0.174-0.066-0.305-0.18-0.436c-0.127-0.11-0.274-0.168-0.455-0.168c-0.189,0-0.324,0.058-0.456,0.168
		c-0.116,0.131-0.175,0.262-0.175,0.436c0,0.169,0.059,0.313,0.17,0.435C189.21,28.575,189.359,28.643,189.529,28.643z"/>
</g>
<g>
	<rect x="189.294" y="37.208" fill="#FFFFFF" width="1.051" height="6.707"/>
</g>
<g>
	<path fill="#FFFFFF" d="M188.932,3.536c0.793-0.93,1.309-2.246,1.167-3.521c-1.143,0.036-2.519,0.729-3.277,1.684
		c-0.753,0.826-1.263,2.134-1.09,3.376C186.876,5.18,188.135,4.467,188.932,3.536z"/>
</g>
<g>
	<path fill="#FFFFFF" d="M182.533,21.793c1.412-0.05,1.949-0.857,3.537-0.857c1.711,0,2.194,0.857,3.728,0.842
		c1.484-0.035,2.486-1.338,3.44-2.702c1.049-1.569,1.488-3.058,1.512-3.133c-0.031-0.005-2.987-1.055-3.016-4.377
		c-0.033-2.653,2.33-3.993,2.428-4.043c-1.285-1.896-3.385-2.16-4.079-2.188c-1.768-0.177-3.4,1.008-4.208,1.008
		c-0.85,0-2.208-0.984-3.652-0.939c-1.898,0.012-3.653,1.07-4.641,2.74c-1.947,3.244-0.488,8.141,1.416,10.881
		C179.965,20.393,181.071,21.854,182.533,21.793z"/>
</g>
<g>
	<rect x="144" fill="#FFFFFF" width="1" height="44"/>
</g>
<g>
	<g>
		<path fill="#FFFFFF" d="M9.565,14.291c-2.039,0-4.006,0.36-5.528,1.078C2.582,16.061,0,18.27,0,22.461v11.594h4.823V23.556
			c0-0.55,0.081-2.193,0.153-2.624c0.439-2.139,2.001-2.649,4.316-2.649c0.231,0,0.511,0.012,0.788,0.032l1.123-3.906
			C10.808,14.326,10.039,14.291,9.565,14.291z"/>
	</g>
	<g>
		<path fill="#E83587" d="M103.488,14.291c-2.035,0-4.006,0.36-5.524,1.078c-1.451,0.693-4.038,2.902-4.038,7.093v11.594h4.82
			V23.556c0-0.55,0.079-2.193,0.157-2.624c0.433-2.139,2.004-2.649,4.314-2.649c0.232,0,0.507,0.012,0.794,0.032l1.115-3.906
			C104.731,14.326,103.965,14.291,103.488,14.291z"/>
	</g>
	<g>
		<path fill="#E83587" d="M52.24,18.424c-3.521-1.365-5.06-2.299-5.06-4.324c0-1.523,1.331-3.157,4.392-3.157
			c2.475,0,4.324,0.741,5.265,1.246l1.173-3.861C56.643,7.63,54.521,7,51.649,7c-5.718,0-9.339,3.276-9.339,7.563
			c0,3.779,2.792,6.079,7.146,7.64c3.372,1.208,4.714,2.372,4.714,4.364c0,2.145-1.736,3.586-4.831,3.586
			c-2.474,0-4.821-0.779-6.395-1.68l-1.062,3.979c1.459,0.858,4.354,1.674,7.14,1.674c6.833,0,10.048-3.705,10.048-7.909
			C59.071,22.432,56.837,20.137,52.24,18.424z"/>
	</g>
	<g>
		<path fill="#E83587" d="M69.102,30.193c-1.85,0-2.475-1.207-2.471-3.511L66.627,18.3l3.347,0.008l1.027-3.584h-4.374V9.337
			l-4.71,2.322V27.23c0,2.495,0.473,4.207,1.491,5.303c0.9,0.97,2.402,1.594,4.16,1.594c1.533,0,2.785-0.232,3.502-0.505
			l-0.088-3.663C70.437,30.113,70.005,30.193,69.102,30.193z"/>
	</g>
	<g>
		<path fill="#FFFFFF" d="M19.843,14.291c-6.125,0-9.334,4.951-9.334,10.207c0,5.81,3.655,9.629,9.842,9.629
			c2.747,0,5.025-0.545,6.663-1.204l-0.706-3.314c-1.445,0.546-3.056,0.855-5.293,0.855c-3.054,0-5.76-1.477-5.882-4.914h12.789
			c0.073-0.428,0.147-1.123,0.147-2.019C28.069,19.357,26.08,14.291,19.843,14.291z M15.133,22.203
			c0.205-1.947,1.457-4.638,4.44-4.638c3.21,0,3.989,2.88,3.949,4.633L15.133,22.203z"/>
	</g>
	<g>
		<path fill="#E83587" d="M122,23.531c0-4.174-2.003-9.24-8.24-9.24c-6.115,0-9.335,4.951-9.335,10.207
			c0,5.81,3.655,9.629,9.847,9.629c2.747,0,5.025-0.545,6.672-1.204l-0.71-3.314c-1.444,0.546-3.054,0.855-5.293,0.855
			c-3.062,0-5.768-1.477-5.881-4.914h12.787C121.92,25.121,122,24.427,122,23.531z M109.057,22.203
			c0.197-1.947,1.454-4.638,4.438-4.638c3.22,0,3.994,2.88,3.956,4.633L109.057,22.203z"/>
	</g>
	<g>
		<path fill="#E83587" d="M82.086,14.291c-5.769,0-9.893,3.82-9.893,10.051c0,6.08,4.167,9.785,9.574,9.785
			c4.869,0,9.802-3.114,9.802-10.09C91.569,18.269,87.774,14.291,82.086,14.291z M81.929,30.655c-2.945,0-4.751-2.761-4.751-6.424
			c0-3.16,1.374-6.425,4.791-6.425c3.292,0,4.625,3.38,4.625,6.343C86.594,27.969,84.673,30.655,81.929,30.655z"/>
	</g>
	<g>
		<path fill="#FFFFFF" d="M34.832,14.839c-1.727,0-2.979,1.286-2.979,3.077c0,1.754,1.209,3.037,2.938,3.037h0.041
			c1.803,0,2.979-1.283,2.979-3.037C37.77,16.125,36.597,14.839,34.832,14.839z"/>
	</g>
	<g>
		<path fill="#FFFFFF" d="M34.832,27.586c-1.727,0-2.979,1.29-2.979,3.08c0,1.716,1.209,3.039,2.938,3.039h0.041
			c1.803,0,2.979-1.323,2.979-3.039C37.77,28.837,36.594,27.586,34.832,27.586z"/>
	</g>
</g>
</svg>
